<svg width="127" height="67" viewBox="0 0 127 67" fill="none" xmlns="http://www.w3.org/2000/svg">
<path fill-rule="evenodd" clip-rule="evenodd" d="M127.001 56.2179L104.99 56.2576L90.5815 35.1112V1.2373H103.494L103.864 43.0675H127.001V56.2179Z" fill="url(#paint0_linear_205_2963)"/>
<path fill-rule="evenodd" clip-rule="evenodd" d="M103.483 1.23723H87.4723L69.2415 28.6297V56.2099H55.1738V31.5797C55.2214 31.5717 55.269 31.5664 55.3166 31.5585C58.6418 31.0457 60.923 27.9345 60.4076 24.6093C59.9846 21.8655 57.7933 19.8355 55.1738 19.4945V1.04956H69.2415V28.6297L87.3798 56.2099H103.483L84.6281 28.7064L103.483 1.23723Z" fill="url(#paint1_linear_205_2963)"/>
<path fill-rule="evenodd" clip-rule="evenodd" d="M18.4558 31.2626C13.7904 26.2324 11.7471 21.0806 13.7719 18.2497C15.8178 15.3923 21.4454 15.6989 27.7867 18.5721C27.7417 18.5801 27.6941 18.5854 27.6492 18.5933C21.6251 19.5925 17.5386 25.2465 18.4558 31.2626ZM13.6635 14.1896C14.0864 16.743 12.3604 19.1563 9.80695 19.5766C7.25352 19.9995 4.84019 18.2735 4.41726 15.72C3.99433 13.1666 5.72041 10.7533 8.27383 10.3303C10.8273 9.90742 13.2406 11.6335 13.6635 14.1869V14.1896Z" fill="url(#paint2_linear_205_2963)"/>
<path fill-rule="evenodd" clip-rule="evenodd" d="M23.2138 38.8093C16.1879 38.611 10.9409 36.3986 10.362 32.9094C9.79637 29.4837 13.8803 25.7752 20.2559 23.3169C18.699 25.6007 17.988 28.466 18.4743 31.4107C18.9924 34.5456 20.774 37.1572 23.2111 38.8093M9.31 32.7746C9.73293 35.328 8.00686 37.7414 5.45343 38.1643C2.9 38.5872 0.486673 36.8612 0.0637449 34.3077C-0.359183 31.7543 1.36689 29.341 3.92032 28.918C6.47374 28.4951 8.88708 30.2212 9.31 32.7746Z" fill="url(#paint3_linear_205_2963)"/>
<path fill-rule="evenodd" clip-rule="evenodd" d="M31.8944 40.464C26.6897 45.5048 21.2551 47.7833 18.3184 45.6819C15.4874 43.6545 15.7623 38.1141 18.5589 31.8416C19.7616 37.6727 25.368 41.561 31.2943 40.5777C31.4952 40.5433 31.6961 40.5036 31.8944 40.4613M19.5449 49.0468C19.9678 51.6002 18.2391 54.0135 15.6883 54.4365C13.1349 54.8594 10.7215 53.1333 10.2986 50.5799C9.87568 48.0265 11.6018 45.6131 14.1552 45.1902C16.7086 44.7673 19.1219 46.4934 19.5449 49.0468Z" fill="url(#paint4_linear_205_2963)"/>
<path fill-rule="evenodd" clip-rule="evenodd" d="M38.8882 35.542C38.8221 42.9142 36.5779 48.4915 32.9751 49.0889C29.4859 49.6678 25.6981 45.4147 23.2451 38.8276C25.5236 40.3634 28.3705 41.0638 31.294 40.5801C34.5558 40.0382 37.2493 38.1324 38.8882 35.542ZM38.4494 53.4503C38.8723 56.0038 37.1462 58.4171 34.5928 58.84C32.0394 59.2629 29.626 57.5369 29.2031 54.9834C28.7802 52.43 30.5063 50.0167 33.0597 49.5938C35.6131 49.1708 38.0264 50.8969 38.4494 53.4503Z" fill="url(#paint5_linear_205_2963)"/>
<path fill-rule="evenodd" clip-rule="evenodd" d="M54.5527 43.4504C54.9757 46.0039 53.2496 48.4172 50.6962 48.8401C48.1427 49.263 45.7294 47.537 45.3065 44.9836C44.8836 42.4301 46.6096 40.0168 49.1631 39.5939C51.7165 39.1709 54.1298 40.897 54.5527 43.4504ZM40.4058 27.4268C45.5365 32.6711 47.8705 38.1744 45.7532 41.1349C43.6544 44.0663 37.7889 43.6672 31.2441 40.5877L31.2944 40.5798C37.366 39.5727 41.4711 33.8341 40.4666 27.7625C40.4481 27.6488 40.427 27.5378 40.4058 27.4268Z" fill="url(#paint6_linear_205_2963)"/>
<path fill-rule="evenodd" clip-rule="evenodd" d="M59.0068 24.8471C59.4298 27.4006 57.7037 29.8139 55.1503 30.2368C52.5968 30.6597 50.1835 28.9337 49.7606 26.3802C49.3376 23.8268 51.0637 21.4135 53.6171 20.9906C56.1706 20.5676 58.5839 22.2937 59.0068 24.8471ZM36.0207 20.5703C43.192 20.7157 48.5737 22.9413 49.1579 26.478C49.7553 30.0782 45.2062 33.9982 38.2569 36.4406C40.1046 34.0696 40.9954 30.9637 40.4641 27.7627C39.9672 24.7546 38.3072 22.2303 36.0181 20.5676L36.0207 20.5703Z" fill="url(#paint7_linear_205_2963)"/>
<path fill-rule="evenodd" clip-rule="evenodd" d="M30.1371 3.92025C30.56 6.47367 28.8339 8.887 26.2805 9.30993C23.7271 9.73286 21.3137 8.00679 20.8908 5.45336C20.4679 2.89993 22.194 0.486599 24.7474 0.0636714C27.3008 -0.359256 29.7141 1.36946 30.1371 3.92025ZM20.6582 22.767C20.9252 15.9314 23.1191 10.8642 26.5448 10.2959C30.0842 9.70907 33.9328 14.0943 36.3832 20.8453C34.0042 18.9659 30.8745 18.0592 27.6497 18.5932C24.7632 19.0716 22.3182 20.6232 20.6582 22.767Z" fill="url(#paint8_linear_205_2963)"/>
<path fill-rule="evenodd" clip-rule="evenodd" d="M48.7218 8.27359C49.1447 10.827 47.4187 13.2403 44.8652 13.6633C42.3118 14.0862 39.8985 12.3601 39.4756 9.8067C39.0526 7.25327 40.7787 4.83994 43.3321 4.41702C45.8856 3.99409 48.2989 5.72017 48.7218 8.27359ZM28.0327 18.5375C33.1131 13.7664 38.3442 11.657 41.2043 13.7056C44.1674 15.8255 43.7286 21.7993 40.5567 28.4261C40.5329 28.2067 40.5038 27.9873 40.4668 27.7653C39.4835 21.8205 33.9616 17.763 28.0327 18.5375Z" fill="url(#paint9_linear_205_2963)"/>
<path d="M55.1738 66.8229V60.323H60.5926V61.0288H56.395V62.8923H60.5926V63.6113H56.395V66.8202H55.1738V66.8229Z" fill="#424242"/>
<path d="M70.3987 62.7601V66.8228H69.3308V66.0854C69.0744 66.3814 68.744 66.6061 68.3449 66.762C67.9457 66.918 67.4964 66.9946 66.9994 66.9946C66.0769 66.9946 65.3342 66.7938 64.7711 66.392C64.2081 65.9902 63.9253 65.4615 63.9253 64.8007C63.9253 64.1399 64.2002 63.6007 64.7474 63.2042C65.2945 62.8103 66.0267 62.6121 66.9439 62.6121C67.4832 62.6121 67.9484 62.6887 68.3449 62.842C68.7387 62.9953 69.0586 63.2227 69.3018 63.524V62.7601H70.3961H70.3987ZM69.3335 64.8298C69.3335 64.3725 69.1352 64.0024 68.7414 63.7222C68.3449 63.4421 67.8294 63.302 67.1924 63.302C66.5554 63.302 66.0188 63.4315 65.6487 63.6879C65.2787 63.9443 65.0936 64.3038 65.0936 64.7663C65.0936 65.258 65.2787 65.636 65.6514 65.903C66.0241 66.1699 66.5501 66.3021 67.2347 66.3021C67.9193 66.3021 68.403 66.1726 68.7757 65.9135C69.1484 65.6545 69.3335 65.2924 69.3335 64.8271V64.8298Z" fill="#424242"/>
<path d="M79.8538 65.858V66.6669C79.5631 66.7779 79.238 66.8572 78.8732 66.9127C78.511 66.9682 78.1198 66.9946 77.6969 66.9946C76.7057 66.9946 75.9047 66.7964 75.2994 66.3973C74.6941 65.9981 74.3901 65.4774 74.3901 64.8271C74.3901 64.1769 74.7047 63.6429 75.3312 63.2306C75.9576 62.8182 76.7612 62.6121 77.7392 62.6121C78.096 62.6121 78.4423 62.6358 78.7807 62.6834C79.119 62.731 79.4388 62.7997 79.7375 62.8922V63.6377C79.4573 63.5213 79.1666 63.4341 78.8679 63.3733C78.5692 63.3125 78.2652 63.2835 77.956 63.2835C77.2343 63.2835 76.6581 63.4262 76.2219 63.7117C75.7858 63.9971 75.5691 64.3778 75.5691 64.8509C75.5691 65.2686 75.7884 65.6175 76.2246 65.8977C76.6607 66.1779 77.2105 66.3206 77.8714 66.3206C78.2044 66.3206 78.5295 66.2836 78.8467 66.2096C79.1639 66.1356 79.4996 66.0193 79.8512 65.858H79.8538Z" fill="#424242"/>
<path d="M83.5107 60.8015C83.5107 60.6614 83.59 60.5425 83.746 60.4447C83.902 60.3442 84.0923 60.2966 84.317 60.2966C84.5416 60.2966 84.724 60.3469 84.8826 60.4473C85.0386 60.5477 85.1179 60.6693 85.1179 60.8121C85.1179 60.9548 85.0412 61.0711 84.8853 61.1663C84.7319 61.2641 84.5416 61.3117 84.317 61.3117C84.0923 61.3117 83.902 61.2641 83.746 61.1663C83.59 61.0685 83.5107 60.9469 83.5107 60.8015ZM83.7724 66.8229V62.7602H84.8826V66.8229H83.7724Z" fill="#424242"/>
<path d="M89.5815 66.8229V59.9424H90.7049V66.8229H89.5815Z" fill="#424242"/>
<path d="M95.1323 60.8015C95.1323 60.6614 95.2116 60.5425 95.3676 60.4447C95.5235 60.3442 95.7139 60.2966 95.9385 60.2966C96.1632 60.2966 96.3456 60.3469 96.5042 60.4473C96.6602 60.5477 96.7395 60.6693 96.7395 60.8121C96.7395 60.9548 96.6628 61.0711 96.5068 61.1663C96.3535 61.2641 96.1632 61.3117 95.9385 61.3117C95.7139 61.3117 95.5235 61.2641 95.3676 61.1663C95.2116 61.0685 95.1323 60.9469 95.1323 60.8015ZM95.3914 66.8229V62.7602H96.5016V66.8229H95.3914Z" fill="#424242"/>
<path d="M101.315 63.3338H100.136V62.7602H101.315V61.1213H102.439V62.7602H103.617V63.3338H102.439V66.8229H101.315V63.3338Z" fill="#424242"/>
<path d="M106.993 60.8015C106.993 60.6614 107.072 60.5425 107.228 60.4447C107.384 60.3442 107.575 60.2966 107.799 60.2966C108.024 60.2966 108.206 60.3469 108.365 60.4473C108.521 60.5477 108.6 60.6693 108.6 60.8121C108.6 60.9548 108.524 61.0711 108.368 61.1663C108.214 61.2641 108.024 61.3117 107.799 61.3117C107.575 61.3117 107.384 61.2641 107.228 61.1663C107.072 61.0685 106.993 60.9469 106.993 60.8015ZM107.255 66.8229V62.7602H108.365V66.8229H107.255Z" fill="#424242"/>
<path d="M118.743 64.8957H113.654V64.9565C113.654 65.3927 113.85 65.7442 114.244 66.0112C114.638 66.2782 115.151 66.413 115.782 66.413C116.213 66.413 116.602 66.339 116.948 66.1936C117.294 66.0482 117.601 65.8262 117.868 65.5301L118.703 65.8843C118.381 66.2517 117.968 66.5293 117.466 66.7143C116.967 66.902 116.385 66.9945 115.724 66.9945C114.746 66.9945 113.956 66.791 113.35 66.3813C112.745 65.9716 112.444 65.4376 112.444 64.7741C112.444 64.1107 112.743 63.6164 113.343 63.212C113.943 62.8075 114.712 62.604 115.653 62.604C116.594 62.604 117.355 62.797 117.91 63.1802C118.465 63.5662 118.743 64.0895 118.743 64.7556V64.8931V64.8957ZM117.564 64.3327C117.527 63.9732 117.337 63.6983 116.998 63.5054C116.66 63.3124 116.195 63.2146 115.605 63.2146C115.071 63.2146 114.627 63.315 114.27 63.5186C113.914 63.7221 113.707 63.9944 113.652 64.3327H117.561H117.564Z" fill="#424242"/>
<path d="M122.049 66.1383L122.99 65.7391C123.167 65.9559 123.392 66.1171 123.664 66.2255C123.936 66.3339 124.256 66.3867 124.626 66.3867C124.996 66.3867 125.276 66.3312 125.501 66.2176C125.723 66.1039 125.834 65.9559 125.834 65.7735C125.834 65.6308 125.758 65.5118 125.607 65.4193C125.454 65.3241 125.195 65.2369 124.824 65.1576C124.787 65.1497 124.727 65.1365 124.642 65.1179C123.08 64.777 122.298 64.3514 122.298 63.8386C122.298 63.4765 122.509 63.1831 122.929 62.9557C123.35 62.7284 123.899 62.6147 124.571 62.6147C125.128 62.6147 125.604 62.6861 126.003 62.8262C126.403 62.9663 126.685 63.1646 126.86 63.4236L125.969 63.7699C125.837 63.5822 125.644 63.4395 125.39 63.339C125.136 63.2386 124.84 63.1883 124.502 63.1883C124.164 63.1883 123.915 63.2465 123.712 63.3602C123.508 63.4738 123.405 63.6192 123.405 63.7963C123.405 64.0448 123.831 64.2536 124.682 64.4228C124.84 64.4545 124.967 64.4809 125.06 64.4994C125.758 64.6422 126.244 64.8034 126.516 64.9858C126.791 65.1682 126.926 65.4087 126.926 65.7074C126.926 66.0933 126.709 66.4026 126.276 66.6431C125.842 66.881 125.279 67 124.581 67C123.981 67 123.474 66.9286 123.053 66.7859C122.636 66.6431 122.3 66.429 122.046 66.1436L122.049 66.1383Z" fill="#424242"/>
<defs>
<linearGradient id="paint0_linear_205_2963" x1="90.5815" y1="28.7461" x2="127.001" y2="28.7461" gradientUnits="userSpaceOnUse">
<stop stop-color="#C5D200"/>
<stop offset="1" stop-color="#72931D"/>
</linearGradient>
<linearGradient id="paint1_linear_205_2963" x1="55.1738" y1="28.6324" x2="103.483" y2="28.6324" gradientUnits="userSpaceOnUse">
<stop stop-color="#28236C"/>
<stop offset="1" stop-color="#119AD7"/>
</linearGradient>
<linearGradient id="paint2_linear_205_2963" x1="4.35382" y1="20.7661" x2="27.7867" y2="20.7661" gradientUnits="userSpaceOnUse">
<stop stop-color="#00963F"/>
<stop offset="1" stop-color="#35AA54"/>
</linearGradient>
<linearGradient id="paint3_linear_205_2963" x1="0.000305734" y1="31.0618" x2="23.2138" y2="31.0618" gradientUnits="userSpaceOnUse">
<stop stop-color="#C5D200"/>
<stop offset="1" stop-color="#8DAC19"/>
</linearGradient>
<linearGradient id="paint4_linear_205_2963" x1="10.2352" y1="43.1707" x2="31.8944" y2="43.1707" gradientUnits="userSpaceOnUse">
<stop stop-color="#009EE2"/>
<stop offset="1" stop-color="#006996"/>
</linearGradient>
<linearGradient id="paint5_linear_205_2963" x1="23.6733" y1="47.2227" x2="39.3164" y2="47.2227" gradientUnits="userSpaceOnUse">
<stop stop-color="#2C2E85"/>
<stop offset="0.4" stop-color="#2B2F86"/>
<stop offset="0.57" stop-color="#28378C"/>
<stop offset="0.69" stop-color="#234396"/>
<stop offset="0.79" stop-color="#1C54A5"/>
<stop offset="0.87" stop-color="#136BB8"/>
<stop offset="0.95" stop-color="#0887CF"/>
<stop offset="1" stop-color="#009EE2"/>
</linearGradient>
<linearGradient id="paint6_linear_205_2963" x1="31.2441" y1="38.1665" x2="54.6162" y2="38.1665" gradientUnits="userSpaceOnUse">
<stop stop-color="#00963F"/>
<stop offset="0.25" stop-color="#059841"/>
<stop offset="0.58" stop-color="#159E47"/>
<stop offset="0.94" stop-color="#2FA852"/>
<stop offset="1" stop-color="#35AA54"/>
</linearGradient>
<linearGradient id="paint7_linear_205_2963" x1="47.5455" y1="28.5055" x2="47.5455" y2="11.7919" gradientUnits="userSpaceOnUse">
<stop stop-color="#C5D200"/>
<stop offset="1" stop-color="#8DAC19"/>
</linearGradient>
<linearGradient id="paint8_linear_205_2963" x1="20.6582" y1="11.3823" x2="36.3858" y2="11.3823" gradientUnits="userSpaceOnUse">
<stop stop-color="#2C2E85"/>
<stop offset="0.17" stop-color="#2A3289"/>
<stop offset="0.37" stop-color="#244194"/>
<stop offset="0.58" stop-color="#1B58A8"/>
<stop offset="0.8" stop-color="#0E79C3"/>
<stop offset="1" stop-color="#009EE2"/>
</linearGradient>
<linearGradient id="paint9_linear_205_2963" x1="28.0327" y1="16.3885" x2="44.0617" y2="16.3885" gradientUnits="userSpaceOnUse">
<stop stop-color="#009EE2"/>
<stop offset="0.3" stop-color="#009CDF"/>
<stop offset="0.51" stop-color="#0095D6"/>
<stop offset="0.69" stop-color="#008BC7"/>
<stop offset="0.85" stop-color="#007CB1"/>
<stop offset="1" stop-color="#006996"/>
</linearGradient>
</defs>
</svg>
